# xmcd
#
# Track frame offsets: 
#        150
#        18970
#        36310
#        55858
#        74935
#        87160
#        98514
#        113445
#        125143
#        138879
#        153878
#
# Disc length: 2327 seconds
#
# Revision: 0
# Processed by: cddbd v1.5.2PL0 Copyright (c) Steve Scherf et al.
# Submitted via: ExactAudioCopy v1.0b4
#
DISCID=8c09150b
DTITLE=Jim Gibson - Storm Warning
DYEAR=2002
DGENRE=Blues
TTITLE0=Love Don't Always Do
TTITLE1=It's Too Late
TTITLE2=Storm Warning
TTITLE3=Rollin' Over Me
TTITLE4=Say When
TTITLE5=Joy Ride
TTITLE6=Extra Special Delivery
TTITLE7=Good Day To Be Bad
TTITLE8=Which Witch Is Which
TTITLE9=Can't Slow Down
TTITLE10=Rock Paper Scissiors
EXTD=
EXTT0=
EXTT1=
EXTT2=
EXTT3=
EXTT4=
EXTT5=
EXTT6=
EXTT7=
EXTT8=
EXTT9=
EXTT10=
PLAYORDER=
